<svg width="145" height="115" viewBox="0 0 145 115" fill="none" xmlns="http://www.w3.org/2000/svg">
<path d="M73.2436 98.539C109.537 98.539 138.959 79.8488 138.959 56.7931C138.959 33.7375 109.537 15.0472 73.2436 15.0472C36.9501 15.0472 7.5285 33.7375 7.5285 56.7931C7.5285 79.8488 36.9501 98.539 73.2436 98.539Z" fill="#FBE581"/>
<path d="M72.3893 103.094C62.7638 103.094 53.3828 101.881 44.5068 99.4895C35.9116 97.1729 28.1712 93.8601 21.5009 89.6419C18.2021 87.5557 15.2039 85.2617 12.589 82.822C9.93935 80.3495 7.66079 77.707 5.81776 74.968C1.95738 69.2318 0 63.1421 0 56.8682C0 50.5944 1.98204 44.5126 5.89119 38.7657C7.75271 36.0289 10.052 33.387 12.7252 30.9128C15.3586 28.4759 18.3753 26.1813 21.6931 24.094C28.3898 19.8798 36.138 16.567 44.7215 14.2476C53.5728 11.8553 62.8816 10.6427 72.3887 10.6427C81.8959 10.6427 91.2176 11.8558 100.09 14.2476C108.697 16.5681 116.471 19.881 123.194 24.0934C126.526 26.1813 129.557 28.4754 132.203 30.9117C134.89 33.3864 137.201 36.0283 139.073 38.7646C143.006 44.5137 145 50.6052 145 56.8682C145 63.1313 143.031 69.2301 139.146 74.9697C137.293 77.7082 135.003 80.3506 132.339 82.8231C129.712 85.2617 126.7 87.5563 123.387 89.6425C116.69 93.8595 108.924 97.1723 100.305 99.4895C91.4081 101.882 82.0164 103.094 72.3893 103.094ZM72.3893 11.8846C53.7113 11.8846 35.939 16.5947 22.3473 25.1478C8.7314 33.7151 1.23317 44.9802 1.23317 56.8682C1.23317 68.7563 8.66358 80.0581 22.1561 88.5898C35.6812 97.1418 53.5212 101.852 72.3887 101.852C91.2562 101.852 109.15 97.1418 122.733 88.5892C136.297 80.049 143.767 68.784 143.767 56.8682C143.767 44.9525 136.229 33.7242 122.543 25.1484C109.09 16.7189 90.81 11.8846 72.3893 11.8846Z" fill="#001F5C"/>
<path d="M10.2807 24.2024C10.4562 24.574 10.5817 24.8575 10.6574 25.053C10.7331 25.2484 10.7852 25.4189 10.8138 25.5641C10.8424 25.7092 10.8536 25.8368 10.8457 25.9458C10.8384 26.0554 10.8132 26.1559 10.7706 26.248C10.728 26.34 10.663 26.4343 10.5761 26.5303C10.4892 26.6264 10.371 26.7325 10.2224 26.8494L8.86144 27.9146L4.73257 22.5596C4.53862 22.3083 4.40802 22.1168 4.3402 21.9858C4.27237 21.8542 4.23762 21.7446 4.23594 21.656C4.23426 21.5679 4.25275 21.482 4.29143 21.3984C4.33011 21.3154 4.40914 21.1929 4.5291 21.0319L4.33123 20.7755L2.14403 22.4873L2.3419 22.7437C2.53641 22.6646 2.68046 22.6172 2.77463 22.6025C2.8688 22.5878 2.95905 22.5952 3.04593 22.6251C3.13281 22.655 3.22754 22.7183 3.32956 22.8143C3.43157 22.9109 3.57563 23.0791 3.76117 23.3197L7.25216 27.8473C7.45115 28.1054 7.58792 28.3065 7.66247 28.4494C7.73702 28.5928 7.76392 28.7267 7.74374 28.8515C7.72356 28.9763 7.62771 29.1508 7.45563 29.375L7.6535 29.6314L12.3244 25.9758L10.8059 23.7902L10.2813 24.2007L10.2807 24.2024Z" fill="#001F5C"/>
<path d="M18.8871 21.1844C18.7369 21.1584 18.5805 21.0895 18.4168 20.9777C18.2537 20.8664 18.0373 20.6914 17.7683 20.4536L12.0178 15.342L11.1327 15.891L12.6148 23.588C12.7084 24.0697 12.742 24.4639 12.7157 24.7706C12.6893 25.0778 12.5823 25.3127 12.3939 25.4765L12.5626 25.7532L14.9544 24.2691L14.7851 23.9923C14.529 24.1042 14.3121 24.1431 14.1338 24.1087C13.9556 24.0742 13.7975 23.9438 13.6596 23.7179C13.5884 23.601 13.5239 23.462 13.4662 23.3005C13.4085 23.139 13.3435 22.8888 13.2706 22.55L13.1232 21.8785L15.7336 20.2593L16.386 20.8591C16.5547 21.0088 16.6994 21.1488 16.8199 21.2787C16.9404 21.4086 17.0402 21.5379 17.1181 21.6656C17.201 21.8011 17.2448 21.9231 17.2492 22.0321C17.2537 22.1411 17.224 22.2461 17.1601 22.3478C17.0962 22.4494 16.9824 22.5776 16.8188 22.7307L16.9875 23.0074L19.5698 21.4052L19.4011 21.1285C19.2077 21.1912 19.0362 21.2098 18.886 21.1833L18.8871 21.1844ZM12.9746 21.2945L12.0273 16.8618L15.3165 19.842L12.9746 21.2945Z" fill="#001F5C"/>
<path d="M26.8657 15.608C26.9162 16.0649 26.9167 16.4286 26.8668 16.6986C26.817 16.9685 26.7093 17.1984 26.5434 17.387C26.3781 17.5762 26.1314 17.7451 25.8035 17.8942C25.3719 18.0901 24.9442 18.1139 24.5216 17.9642C24.0984 17.8145 23.6864 17.4954 23.2845 17.0064C22.8826 16.5179 22.5053 15.8786 22.1516 15.089C21.8002 14.3035 21.5922 13.5924 21.5278 12.9548C21.4639 12.3172 21.5306 11.7875 21.729 11.3656C21.9274 10.9438 22.2324 10.6388 22.6444 10.4519C22.9201 10.3265 23.1757 10.2638 23.4117 10.2632C23.6471 10.2632 23.8854 10.3327 24.1264 10.4728C24.3674 10.6128 24.6141 10.8365 24.8669 11.1431L25.4605 10.8732L24.711 9.19981C24.2682 9.27492 23.8848 9.36359 23.5597 9.46468C23.2346 9.56633 22.8904 9.69961 22.5266 9.86508C21.7991 10.196 21.2526 10.6574 20.8877 11.2499C20.5227 11.8423 20.3507 12.5239 20.3708 13.2954C20.3916 14.0668 20.5945 14.8829 20.9807 15.7453C21.5956 17.1188 22.3181 18.0342 23.1477 18.4905C23.9779 18.9474 24.9005 18.9446 25.9156 18.4832C26.3876 18.2686 26.8091 18.0466 27.1802 17.8174C27.5512 17.5881 27.9021 17.3379 28.2334 17.0662L27.4599 15.3381L26.8657 15.608Z" fill="#001F5C"/>
<path d="M35.9811 13.8703C35.8398 13.8133 35.7008 13.7127 35.564 13.5699C35.4273 13.4264 35.2518 13.2107 35.0377 12.9215L30.4677 6.71716L29.4884 7.069L29.35 14.9083C29.3421 15.3991 29.2934 15.7916 29.2048 16.0864C29.1157 16.3812 28.9621 16.5885 28.7441 16.7093L28.8522 17.0154L31.4985 16.0649L31.3903 15.7588C31.1168 15.8147 30.8965 15.8074 30.7295 15.7357C30.5624 15.6645 30.4346 15.5041 30.3461 15.2539C30.3007 15.1252 30.2659 14.9755 30.2435 14.8055C30.2205 14.6355 30.2082 14.3775 30.2065 14.0307L30.2009 13.3434L33.0887 12.3065L33.6027 13.0294C33.7367 13.2112 33.8494 13.3784 33.9408 13.5309C34.0321 13.6834 34.1027 13.8308 34.1526 13.972C34.2059 14.1216 34.2233 14.2504 34.2053 14.3577C34.1874 14.465 34.1369 14.5616 34.0534 14.648C33.9699 14.7344 33.832 14.8355 33.6403 14.9512L33.7485 15.2573L36.605 14.2312L36.4968 13.9251C36.2944 13.946 36.1223 13.9273 35.9811 13.8703ZM30.1751 12.7397L30.1633 8.20528L32.7659 11.8095L30.1751 12.7397Z" fill="#001F5C"/>
<path d="M41.0135 9.3681C40.763 9.11566 40.4564 8.91404 40.0937 8.76438C39.731 8.61472 39.2411 8.48031 38.6246 8.36059C38.1156 8.26627 37.7215 8.16179 37.4441 8.04771C37.166 7.93363 36.9446 7.78736 36.7787 7.60947C36.6128 7.43157 36.4878 7.19155 36.4037 6.88941C36.3241 6.60421 36.3191 6.34103 36.388 6.09875C36.4575 5.85648 36.5865 5.65373 36.7754 5.48995C36.9643 5.32617 37.1958 5.20588 37.4704 5.12795C37.7871 5.03815 38.0562 5.00709 38.2776 5.03363C38.499 5.06018 38.7131 5.15731 38.9188 5.32392C39.1245 5.49052 39.3286 5.74748 39.5298 6.09424L40.157 5.9169L39.6767 4.19385C39.1834 4.20514 38.7787 4.23677 38.4631 4.28929C38.1475 4.34181 37.8292 4.41354 37.5085 4.50446C36.9553 4.6609 36.4912 4.89583 36.1162 5.20814C35.7412 5.52101 35.4917 5.88415 35.3679 6.29755C35.244 6.71151 35.2485 7.15653 35.3813 7.63262C35.4727 7.96018 35.6274 8.24199 35.846 8.47862C36.0646 8.71525 36.3499 8.91065 36.703 9.06596C37.0562 9.2207 37.5141 9.35173 38.0764 9.45846C38.6582 9.56916 39.101 9.68493 39.4031 9.80579C39.7058 9.92664 39.9418 10.0803 40.1122 10.2661C40.2826 10.4519 40.4121 10.7043 40.5012 11.0234C40.6397 11.5209 40.6133 11.9372 40.4222 12.2715C40.2305 12.6058 39.888 12.8425 39.3936 12.9825C39.0349 13.0842 38.7266 13.1152 38.4698 13.0751C38.2131 13.035 37.9822 12.9272 37.7781 12.751C37.5741 12.5748 37.3779 12.311 37.189 11.9609L36.5556 12.1399L37.0433 13.8884C37.9715 13.8692 38.7675 13.7653 39.4306 13.5778C39.8403 13.462 40.2047 13.3118 40.5248 13.1271C40.8443 12.9424 41.101 12.7188 41.2938 12.455C41.4866 12.1919 41.6099 11.8858 41.6632 11.5379C41.7164 11.19 41.6811 10.793 41.5567 10.3463C41.4451 9.94641 41.2635 9.62055 41.0135 9.3681Z" fill="#001F5C"/>
<path d="M50.0953 10.3762C49.9624 10.3005 49.838 10.1825 49.7214 10.0221C49.6048 9.8617 49.4596 9.62393 49.2859 9.3088L45.5779 2.54534L44.5611 2.7622L43.3857 10.5129C43.3128 10.998 43.2131 11.3809 43.0858 11.661C42.9586 11.9411 42.7786 12.1264 42.5466 12.2161L42.6133 12.5341L45.3616 11.9479L45.2949 11.6299C45.0163 11.6486 44.7988 11.6113 44.643 11.5181C44.4866 11.4249 44.3812 11.2487 44.3268 10.9895C44.2988 10.8557 44.2842 10.7026 44.2842 10.5309C44.2842 10.3592 44.3061 10.1017 44.3504 9.75778L44.4356 9.07556L47.435 8.4357L47.8487 9.22127C47.9574 9.41949 48.0471 9.60022 48.1172 9.76343C48.1872 9.92721 48.2377 10.0819 48.2691 10.2288C48.3016 10.3847 48.3021 10.514 48.2702 10.6179C48.2382 10.7218 48.1749 10.811 48.0807 10.885C47.9866 10.9596 47.8369 11.0409 47.6312 11.1301L47.6979 11.4481L50.6648 10.815L50.5981 10.497C50.3952 10.4908 50.227 10.4496 50.0947 10.3739L50.0953 10.3762ZM44.4911 8.47523L45.0796 3.97981L47.1816 7.90144L44.4911 8.47523Z" fill="#001F5C"/>
<path d="M60.5834 2.87063C60.3457 2.36179 60.0256 1.95009 59.6243 1.63552C59.223 1.32095 58.7493 1.1024 58.2039 0.979844C57.6585 0.857293 56.9736 0.84261 56.1501 0.935794L53.2869 1.26053L53.3228 1.583C53.5341 1.61688 53.6838 1.6519 53.7718 1.68861C53.8598 1.72532 53.9327 1.7784 53.9915 1.8473C54.0498 1.9162 54.098 2.01842 54.135 2.15453C54.172 2.29063 54.2079 2.51202 54.2426 2.81924L54.8794 8.51646C54.9136 8.81917 54.9271 9.04224 54.9209 9.18569C54.9147 9.32857 54.8917 9.44039 54.8525 9.52002C54.8127 9.60022 54.7522 9.66912 54.6703 9.72729C54.5885 9.78545 54.4506 9.8521 54.2555 9.92777L54.2914 10.2502L56.658 9.98199C57.3861 9.89953 57.9657 9.79618 58.3973 9.67137C58.8289 9.54656 59.2028 9.3777 59.5189 9.16366C59.9001 8.90275 60.2117 8.58931 60.4533 8.22392C60.733 7.80544 60.9253 7.3045 61.0301 6.72111C61.1349 6.13772 61.1456 5.47527 61.0626 4.73318C60.9808 4.00014 60.821 3.37948 60.5834 2.87063ZM59.7981 6.23825C59.7852 6.61776 59.737 6.96678 59.6535 7.2853C59.5699 7.60382 59.4477 7.89128 59.2863 8.14711C59.1249 8.40351 58.9343 8.61077 58.7134 8.7689C58.4926 8.9276 58.242 9.05354 57.9612 9.14785C57.6804 9.24216 57.357 9.30993 56.9909 9.35116C56.6507 9.38956 56.3928 9.40989 56.2163 9.41215L55.3469 1.63326C55.6109 1.58582 55.8906 1.5446 56.1871 1.51128C56.8323 1.43786 57.4012 1.50676 57.8951 1.71798C58.3889 1.92919 58.7947 2.30645 59.1142 2.8503C59.4332 3.39416 59.6423 4.11196 59.742 5.0037C59.7919 5.44703 59.8104 5.85874 59.7981 6.23825Z" fill="#001F5C"/>
<path d="M68.2952 7.44682C68.252 7.60608 68.1965 7.75969 68.1281 7.90878C68.0603 8.05788 67.9802 8.17986 67.8877 8.27474C67.7952 8.36962 67.6831 8.43909 67.5513 8.48257C67.4196 8.52606 67.2459 8.55317 67.0312 8.56277L64.9875 8.65652L64.8154 4.83597L66.2218 4.77159C66.4275 4.76199 66.5833 4.78401 66.6887 4.83653C66.7941 4.88906 66.8871 4.98111 66.9678 5.11213C67.0486 5.24316 67.1253 5.44025 67.1988 5.7023L67.8165 5.67406L67.7016 3.13155L67.0839 3.15979C67.0306 3.44555 66.9712 3.6562 66.9051 3.79174C66.8389 3.92728 66.752 4.02555 66.645 4.08541C66.5379 4.14584 66.3882 4.18029 66.1954 4.18876L64.789 4.25315L64.6327 0.783311L66.7094 0.688432C66.8804 0.680526 67.0278 0.686173 67.1517 0.70481C67.2756 0.723447 67.3838 0.764109 67.4768 0.825667C67.5693 0.88779 67.6556 0.972503 67.7352 1.07924C67.8148 1.18598 67.8933 1.31983 67.9706 1.47965C68.048 1.64004 68.1248 1.82641 68.1999 2.03988L68.8439 2.01052L68.7537 0.0107303L62.6091 0.291977L62.6237 0.616144C62.8277 0.664148 62.9724 0.709893 63.0581 0.752249C63.1433 0.794606 63.2128 0.85334 63.2672 0.928452C63.321 1.00356 63.3619 1.10974 63.3905 1.2481C63.4185 1.3859 63.4398 1.60728 63.4533 1.91225L63.7117 7.63996C63.7263 7.96695 63.7229 8.2098 63.7016 8.37019C63.6803 8.53058 63.6254 8.65539 63.5374 8.74575C63.4494 8.83611 63.2711 8.92251 63.0026 9.00553L63.0172 9.3297L69.1029 9.05128L69.1231 6.72168L68.4723 6.75161C68.3983 7.05601 68.3395 7.28756 68.2963 7.44625L68.2952 7.44682Z" fill="#001F5C"/>
<path d="M78.7665 7.47675C78.6998 7.67554 78.6314 7.83989 78.5608 7.96978C78.4901 8.09967 78.4173 8.20415 78.3416 8.28321C78.2665 8.36228 78.183 8.42327 78.0916 8.46619C77.9997 8.50912 77.8904 8.53961 77.762 8.55655C77.6342 8.57406 77.4756 8.57914 77.2878 8.5718L75.5653 8.50742L75.8153 1.73153C75.827 1.41357 75.8489 1.18203 75.8803 1.03745C75.9122 0.892873 75.9554 0.786135 76.0103 0.717235C76.0658 0.6489 76.1342 0.594684 76.2172 0.555716C76.2996 0.516748 76.4386 0.474392 76.6331 0.428647L76.6449 0.103914L73.8769 0L73.8652 0.324732C74.0647 0.389679 74.2054 0.446719 74.2867 0.496417C74.368 0.546115 74.433 0.610497 74.4806 0.689562C74.5283 0.768627 74.5602 0.878189 74.577 1.01825C74.5939 1.15831 74.5967 1.38025 74.5855 1.68522L74.3741 7.41463C74.3624 7.74162 74.3388 7.9839 74.3046 8.14146C74.2704 8.29959 74.2054 8.41988 74.1101 8.50234C74.0148 8.58479 73.8299 8.65652 73.5558 8.71694L73.544 9.04168L79.4542 9.26306L79.6841 6.60534L79.0204 6.58049C78.9178 6.9792 78.8326 7.27796 78.7665 7.47675Z" fill="#001F5C"/>
<path d="M86.9726 1.29498C86.4766 0.896261 85.8404 0.657936 85.0635 0.579435C84.3348 0.506018 83.6762 0.624615 83.0876 0.936359C82.499 1.24754 82.0215 1.74 81.6549 2.41375C81.2883 3.0875 81.0562 3.91429 80.9587 4.8947C80.8797 5.69044 80.8954 6.38282 81.0069 6.9713C81.1179 7.55977 81.309 8.05336 81.5803 8.45151C81.8516 8.84966 82.1936 9.15745 82.6061 9.37432C83.0187 9.59118 83.4867 9.72616 84.0102 9.77924C84.7524 9.85435 85.4188 9.74366 86.0102 9.4483C86.6016 9.15293 87.0853 8.66668 87.4609 7.98954C87.837 7.31241 88.0758 6.45963 88.1784 5.43065C88.2742 4.46775 88.221 3.63757 88.0197 2.9401C87.8179 2.24263 87.4687 1.69369 86.9726 1.29498ZM86.8017 5.57128C86.7232 6.35854 86.5719 7.03794 86.3476 7.6106C86.1229 8.18325 85.8297 8.60512 85.4682 8.87733C85.1061 9.14954 84.6874 9.26136 84.2115 9.21336C83.4609 9.13768 82.925 8.72824 82.6044 7.98559C82.2838 7.24294 82.1908 6.19646 82.3247 4.8467C82.3836 4.25315 82.48 3.71889 82.6134 3.24393C82.7468 2.76898 82.9228 2.37026 83.142 2.04835C83.3611 1.72645 83.6207 1.48699 83.9206 1.33112C84.2204 1.17468 84.5668 1.11651 84.9592 1.15605C85.4043 1.20066 85.7804 1.38308 86.0881 1.70329C86.3959 2.02294 86.615 2.50806 86.7467 3.15866C86.8779 3.80925 86.8964 4.61402 86.8006 5.57241L86.8017 5.57128Z" fill="#001F5C"/>
<path d="M93.4799 1.7095C92.9126 1.61575 92.3936 1.631 91.9227 1.75468C91.4513 1.87836 91.0729 2.10144 90.7876 2.42391C90.5018 2.74639 90.3196 3.15188 90.24 3.63983C90.1856 3.97585 90.2075 4.2972 90.3067 4.60442C90.4053 4.91165 90.5825 5.21096 90.8375 5.50125C91.0926 5.79209 91.4524 6.10553 91.9177 6.44156C92.3986 6.78945 92.7512 7.08255 92.9748 7.32144C93.1979 7.55977 93.3481 7.79922 93.4244 8.04037C93.5006 8.28152 93.5124 8.56559 93.4591 8.89258C93.3762 9.40255 93.1777 9.76851 92.8644 9.98989C92.5505 10.2113 92.1407 10.2802 91.634 10.1966C91.2663 10.1362 90.9737 10.0328 90.7579 9.88767C90.5416 9.74253 90.3779 9.546 90.2669 9.29977C90.1559 9.05297 90.0881 8.73106 90.064 8.33291L89.4149 8.22561L89.1234 10.0181C89.9732 10.396 90.7377 10.6405 91.4171 10.7523C91.8369 10.8218 92.2304 10.8404 92.5976 10.8094C92.9647 10.7783 93.291 10.6845 93.5768 10.5275C93.8621 10.3711 94.1021 10.1463 94.2966 9.85379C94.4905 9.56125 94.625 9.18569 94.6996 8.72824C94.7663 8.31823 94.7388 7.94549 94.6183 7.61003C94.4972 7.27457 94.3038 6.9617 94.0376 6.67141C93.7713 6.38113 93.384 6.05075 92.8756 5.68027C92.4535 5.37813 92.1407 5.11552 91.9367 4.89414C91.7327 4.67219 91.5931 4.44573 91.5174 4.21361C91.4418 3.98206 91.4289 3.71098 91.4793 3.4015C91.527 3.10952 91.6329 2.86837 91.7971 2.67805C91.9614 2.4883 92.1632 2.35897 92.4031 2.2912C92.643 2.22343 92.9036 2.2127 93.185 2.25901C93.5096 2.31266 93.7668 2.3985 93.9563 2.5171C94.1458 2.6357 94.2988 2.81416 94.4159 3.05305C94.5325 3.29194 94.6099 3.61102 94.6469 4.01143L95.2893 4.11761L95.5762 2.35163C95.1245 2.1517 94.7444 2.00826 94.4361 1.92185C94.1278 1.83544 93.8094 1.76485 93.4804 1.71063L93.4799 1.7095Z" fill="#001F5C"/>
<path d="M105.711 10.1153C105.804 10.0684 105.934 10.039 106.1 10.0272L106.18 9.7126L103.604 9.05128L103.525 9.36584C103.743 9.48614 103.891 9.60586 103.97 9.72616C104.048 9.84645 104.085 9.9978 104.082 10.1791C104.08 10.3609 104.029 10.6444 103.932 11.0296L103.834 11.4148C103.718 11.8728 103.511 12.1811 103.213 12.3393C102.915 12.4974 102.515 12.5121 102.014 12.3833C101.542 12.2619 101.183 12.0089 100.937 11.6243C100.69 11.2397 100.56 10.7286 100.547 10.091C100.534 9.45394 100.634 8.71581 100.846 7.87659C101.055 7.05036 101.33 6.36984 101.671 5.83502C102.013 5.3002 102.396 4.92802 102.82 4.71737C103.244 4.50728 103.688 4.46154 104.151 4.5807C104.487 4.66711 104.753 4.78401 104.948 4.93254C105.144 5.08107 105.293 5.28325 105.396 5.53965C105.498 5.79605 105.558 6.13207 105.576 6.5466L106.207 6.70869L106.653 4.94214C106.235 4.71624 105.849 4.53383 105.495 4.3949C105.141 4.25597 104.767 4.13568 104.372 4.03459C103.619 3.84144 102.918 3.85838 102.267 4.08598C101.617 4.31357 101.055 4.73375 100.583 5.34651C100.112 5.95926 99.7601 6.72224 99.5297 7.63375C99.1592 9.09815 99.1519 10.2717 99.5078 11.1544C99.8637 12.0371 100.58 12.6166 101.655 12.8927C102.046 12.9932 102.402 13.0412 102.725 13.0379C103.047 13.0339 103.368 12.982 103.688 12.8814L104.026 13.5021L104.558 13.4947L105.122 11.2662C105.189 11.0008 105.248 10.7981 105.299 10.6586C105.35 10.5191 105.409 10.405 105.474 10.3169C105.54 10.2288 105.618 10.1621 105.711 10.1153Z" fill="#001F5C"/>
<path d="M112.979 15.7024C112.903 15.5696 112.855 15.4042 112.835 15.2065C112.815 15.0088 112.809 14.7299 112.818 14.369L113.023 6.64543L112.037 6.31336L107.126 12.3957C106.819 12.7769 106.54 13.0559 106.29 13.2321C106.04 13.4089 105.792 13.4767 105.546 13.436L105.444 13.7438L108.109 14.6412L108.211 14.3334C107.961 14.2075 107.792 14.0646 107.704 13.9042C107.616 13.7444 107.614 13.5382 107.698 13.2869C107.741 13.157 107.805 13.0181 107.892 12.8701C107.978 12.7222 108.127 12.5115 108.337 12.2376L108.754 11.6932L111.661 12.6725L111.623 13.5614C111.618 13.7878 111.604 13.9895 111.582 14.1662C111.56 14.343 111.526 14.5028 111.478 14.6451C111.428 14.7959 111.363 14.9083 111.283 14.9812C111.203 15.0546 111.104 15.0992 110.985 15.115C110.866 15.1308 110.697 15.1246 110.475 15.0969L110.373 15.4047L113.249 16.3738L113.351 16.0661C113.179 15.9571 113.055 15.8356 112.979 15.7024ZM111.711 12.0812L109.103 11.2024L111.871 7.62697L111.711 12.0812Z" fill="#001F5C"/>
<path d="M123.462 11.979C123.542 11.8598 123.619 11.7773 123.693 11.7327C123.767 11.6881 123.85 11.6616 123.942 11.6531C124.034 11.6452 124.181 11.6559 124.383 11.6858L124.51 11.3877L122.336 10.4423L122.208 10.7404C122.371 10.8737 122.48 10.9776 122.537 11.0528C122.593 11.1279 122.627 11.2092 122.64 11.2962C122.653 11.3837 122.64 11.4955 122.6 11.6322C122.56 11.7689 122.481 11.9773 122.361 12.2574L121.814 13.5354C121.56 14.1278 121.283 14.7954 120.984 15.5391C120.685 16.2824 120.492 16.7822 120.406 17.0386L120.328 17.0047C120.32 16.7319 120.306 16.4828 120.286 16.2575C120.265 16.0322 120.235 15.7662 120.194 15.4595L119.357 9.14728L117.467 8.32557L117.339 8.62376C117.501 8.75704 117.612 8.86152 117.67 8.9372C117.728 9.01287 117.765 9.09646 117.781 9.18795C117.797 9.27887 117.788 9.39295 117.753 9.52962C117.718 9.66629 117.641 9.87469 117.522 10.1542L115.267 15.4183C115.139 15.7187 115.03 15.9362 114.941 16.0706C114.853 16.205 114.749 16.2937 114.631 16.336C114.513 16.3784 114.315 16.3778 114.037 16.3343L113.91 16.6325L116.114 17.5909L116.242 17.2927C116.078 17.1634 115.964 17.0566 115.903 16.9719C115.841 16.8872 115.805 16.7991 115.794 16.7082C115.782 16.6167 115.795 16.5043 115.83 16.3705C115.866 16.2366 115.943 16.0339 116.059 15.7622L116.591 14.5209C116.938 13.7093 117.281 12.8922 117.619 12.0693C117.957 11.2465 118.179 10.6727 118.284 10.3479L118.387 10.3926C118.395 10.584 118.409 10.7805 118.428 10.981C118.447 11.1821 118.486 11.504 118.544 11.9485L119.475 19.0954L120.23 19.4235L123.151 12.6013C123.278 12.3054 123.381 12.0975 123.461 11.9778L123.462 11.979Z" fill="#001F5C"/>
<path d="M129.447 15.2201C129.481 15.4838 129.451 15.8114 129.357 16.2022L129.931 16.5122L130.77 14.9349C130.407 14.5983 130.094 14.3385 129.83 14.1561C129.566 13.9737 129.287 13.8031 128.993 13.6444C128.487 13.3711 127.991 13.2158 127.505 13.179C127.02 13.1423 126.59 13.2299 126.216 13.4417C125.842 13.6534 125.539 13.977 125.307 14.4136C125.147 14.7135 125.065 15.0247 125.06 15.3483C125.054 15.6713 125.126 16.0118 125.273 16.3699C125.421 16.7279 125.661 17.1425 125.993 17.6124C126.336 18.0986 126.575 18.4911 126.71 18.7893C126.844 19.0875 126.909 19.3636 126.904 19.6161C126.899 19.8691 126.819 20.1413 126.663 20.4333C126.421 20.889 126.116 21.1703 125.747 21.277C125.379 21.3843 124.969 21.3154 124.517 21.0709C124.189 20.8936 123.945 20.7004 123.787 20.4926C123.629 20.2842 123.537 20.0453 123.511 19.7759C123.486 19.5065 123.525 19.1795 123.63 18.7949L123.051 18.4815L122.199 20.082C122.881 20.7162 123.526 21.1974 124.133 21.5255C124.508 21.7283 124.874 21.8745 125.232 21.9649C125.589 22.0553 125.928 22.0728 126.249 22.018C126.569 21.9632 126.868 21.8288 127.146 21.6153C127.424 21.4018 127.672 21.0907 127.889 20.6818C128.084 20.3158 128.178 19.9544 128.172 19.5969C128.165 19.24 128.083 18.8808 127.924 18.5193C127.765 18.1579 127.505 17.7191 127.143 17.2023C126.841 16.7788 126.629 16.4286 126.507 16.1519C126.386 15.8757 126.326 15.6154 126.329 15.3714C126.332 15.1274 126.407 14.8671 126.555 14.5904C126.694 14.3294 126.871 14.1357 127.088 14.0098C127.304 13.8839 127.537 13.8274 127.786 13.8415C128.034 13.8556 128.284 13.9302 128.536 14.0663C128.825 14.2227 129.041 14.3882 129.182 14.5621C129.324 14.7361 129.411 14.9552 129.445 15.2189L129.447 15.2201Z" fill="#001F5C"/>
<path d="M136.409 23.5773C136.941 22.7708 137.279 22.0118 137.424 21.3002C137.569 20.5886 137.515 19.9397 137.261 19.3535C137.008 18.7678 136.556 18.2573 135.905 17.8219C135.295 17.4136 134.658 17.2091 133.993 17.2069C133.328 17.2052 132.677 17.4158 132.04 17.8382C131.404 18.2612 130.815 18.883 130.274 19.7042C129.835 20.3706 129.528 20.9901 129.354 21.5628C129.179 22.1354 129.12 22.6618 129.175 23.1413C129.229 23.6207 129.389 24.0539 129.653 24.4402C129.917 24.8265 130.269 25.1659 130.707 25.459C131.328 25.8747 131.969 26.091 132.629 26.1079C133.289 26.1249 133.942 25.9227 134.588 25.5008C135.234 25.0789 135.841 24.4374 136.409 23.5761L136.409 23.5773ZM133.78 24.6429C133.316 25.0434 132.861 25.2789 132.415 25.3489C131.969 25.4189 131.546 25.3206 131.148 25.0546C130.52 24.6345 130.236 24.02 130.297 23.2124C130.358 22.4048 130.761 21.4357 131.506 20.3057C131.833 19.8087 132.166 19.3817 132.504 19.0242C132.842 18.6667 133.183 18.3974 133.526 18.2161C133.869 18.0348 134.209 17.9456 134.547 17.9484C134.885 17.9512 135.218 18.063 135.547 18.2827C135.919 18.5318 136.168 18.8706 136.291 19.2976C136.415 19.7251 136.384 20.2576 136.199 20.8941C136.013 21.5312 135.656 22.2512 135.127 23.0537C134.693 23.7128 134.244 24.2425 133.78 24.6429Z" fill="#001F5C"/>
<path d="M143.677 23.8054C143.455 23.5733 143.216 23.3491 142.961 23.1345C142.52 22.7635 142.064 22.511 141.596 22.3766C141.128 22.2422 140.69 22.2405 140.281 22.3721C139.873 22.5037 139.511 22.7595 139.197 23.139C138.98 23.4005 138.838 23.6885 138.768 24.0042C138.698 24.3199 138.7 24.6678 138.773 25.0484C138.846 25.4291 138.998 25.8837 139.229 26.4117C139.468 26.9579 139.624 27.3905 139.696 27.7101C139.769 28.0298 139.777 28.3127 139.721 28.5595C139.666 28.8063 139.533 29.0565 139.322 29.3112C138.993 29.7082 138.638 29.9217 138.256 29.9522C137.875 29.9821 137.487 29.8319 137.093 29.5009C136.806 29.2604 136.607 29.022 136.493 28.786C136.38 28.5499 136.338 28.2975 136.367 28.0281C136.395 27.7587 136.5 27.4464 136.679 27.0911L136.174 26.6665L135.02 28.0614C135.562 28.8215 136.097 29.4236 136.626 29.868C136.952 30.1425 137.282 30.3605 137.614 30.5214C137.946 30.6824 138.274 30.7688 138.599 30.7795C138.924 30.7908 139.244 30.7202 139.559 30.5672C139.874 30.4147 140.178 30.16 140.474 29.8036C140.738 29.4846 140.902 29.1497 140.967 28.7984C141.032 28.4471 141.023 28.0789 140.94 27.6926C140.857 27.3063 140.69 26.8235 140.438 26.244C140.228 25.7674 140.09 25.3816 140.026 25.0863C139.962 24.7909 139.956 24.5243 140.008 24.2855C140.059 24.0471 140.185 23.8071 140.385 23.5665C140.573 23.3395 140.785 23.1859 141.022 23.1057C141.26 23.0261 141.499 23.0182 141.74 23.0825C141.981 23.1469 142.211 23.2712 142.43 23.4547C142.682 23.6671 142.86 23.8726 142.964 24.072C143.068 24.2713 143.109 24.5035 143.09 24.7689C143.07 25.0343 142.975 25.3489 142.806 25.7126L143.306 26.1328L144.443 24.7582C144.155 24.3549 143.9 24.037 143.678 23.8043L143.677 23.8054Z" fill="#001F5C"/>
<path d="M134.233 40.1934C130.805 35.1812 125.92 30.6683 119.714 26.7794C113.56 22.9233 106.444 19.8911 98.5639 17.7665C90.439 15.5759 81.9038 14.4656 73.1959 14.4656C64.488 14.4656 55.9652 15.5764 47.8599 17.7671C40.0018 19.8906 32.9094 22.9233 26.7794 26.7805C20.6023 30.6677 15.7408 35.1806 12.33 40.1945C8.76167 45.4405 6.95227 50.9982 6.95227 56.7141C6.95227 62.4299 8.73925 67.995 12.2628 73.2319C15.6422 78.2537 20.4667 82.7678 26.6028 86.6476C32.7081 90.5083 39.7933 93.541 47.662 95.6616C48.0953 95.7785 48.5297 95.8915 48.9658 96.0022V96.0055L49.2881 96.0835C49.2926 96.0846 49.2971 96.0857 49.3021 96.0869C50.8783 96.4805 52.4708 96.834 54.0779 97.1475C60.6422 98.4707 66.7201 99.1173 72.5395 99.1173C80.3886 99.1173 88.1016 98.2301 95.4686 96.4816C96.574 96.2275 97.6721 95.9542 98.7612 95.6616C106.652 93.5404 113.76 90.5077 119.89 86.6482C126.055 82.7666 130.903 78.2531 134.301 73.2331C137.846 67.9944 139.644 62.4367 139.644 56.7146C139.644 50.9926 137.824 45.4422 134.233 40.1945V40.1934ZM75.47 61.576L76.8153 62.8332H68.0687L69.414 61.576H75.47ZM70.2111 60.7289L72.442 58.2993L74.6729 60.7289H70.2111ZM77.7222 63.6803L80.8601 66.6119H64.025L67.1629 63.6803H77.7222ZM81.7664 67.459L85.9065 71.3276H58.9775L63.1175 67.459H81.7664ZM86.8135 72.1747L90.6744 75.7823H54.2101L58.0711 72.1747H86.8135ZM91.5813 76.6295L95.0415 79.8621H49.857L53.3043 76.6295H91.5813ZM95.9479 80.7092L99.0908 83.646H45.8251L48.9535 80.7092H95.9479ZM99.9977 84.4931L101.214 85.6294H43.7573L44.926 84.4931H99.9977ZM95.1984 93.829H49.8066L49.8055 91.1182H95.1979L95.1984 93.829ZM74.0317 90.2711C74.7402 89.9407 75.322 89.3827 75.6852 88.6898H94.9182C95.0096 88.7203 95.1032 88.7445 95.199 88.7632V90.2711H74.0317ZM75.9991 87.8426C76.0602 87.5795 76.0938 87.3055 76.0938 87.0237V86.4765H93.3756V86.5403C93.3756 87.0254 93.5275 87.4744 93.7853 87.8426H75.9991ZM69.0878 87.8426H51.2292C51.4876 87.4744 51.6401 87.0249 51.6401 86.5403V86.4765H68.993V87.0237C68.993 87.3055 69.0267 87.5795 69.0878 87.8426ZM50.093 88.6898H69.4017C69.7643 89.3827 70.3467 89.9407 71.0552 90.2711H49.8055V88.7643C49.9036 88.7457 49.9994 88.7208 50.093 88.6898ZM49.8066 95.3369V94.6761H95.1979V95.6757C94.565 95.8254 93.93 95.9683 93.2921 96.1049C86.8667 97.4276 80.1045 98.1149 73.1959 98.1149C67.1691 98.1149 61.2571 97.5908 55.5851 96.5782C53.7006 96.2218 51.7769 95.8085 49.8066 95.3369ZM119.445 85.9292C112.649 90.2078 104.684 93.4393 96.0387 95.4961V88.7643C97.0801 88.5672 97.8688 87.6467 97.8688 86.5397V86.4759H103.356L75.9324 60.8526L72.442 57.0512L68.9521 60.852L52.973 75.7818L52.8536 75.8936L52.0667 76.6289H52.0695L47.7186 80.7087L44.5909 83.6454H44.5864L44.467 83.7617L43.6884 84.4925H43.7147L41.6744 86.4759H47.1317V86.5397C47.1317 87.645 47.9204 88.5644 48.9624 88.7632L48.9647 95.1454C40.8852 93.0801 33.4424 89.9723 27.049 85.9292C14.631 78.0769 7.79251 67.7013 7.79251 56.7135C7.79251 45.7257 14.6938 35.3834 27.2245 27.4983C39.7125 19.6404 56.0391 15.3127 73.1953 15.3127C90.3515 15.3127 106.909 19.7545 119.269 27.4989C131.865 35.3913 138.802 45.7669 138.802 56.7135C138.802 67.6601 131.927 78.069 119.444 85.9287L119.445 85.9292Z" fill="#001F5C"/>
<path d="M89.5898 42.0463C89.5898 42.0463 91.7786 47.5882 99.5566 48.5348C106.769 49.2272 107.62 39.1644 107.62 39.1644L114.4 32.1022C114.4 32.1022 117.927 32.7946 119.165 30.256C119.165 30.256 117.515 29.379 117.103 28.5482C117.103 28.5482 114.995 26.2864 113.026 27.9484C112.123 28.7097 111.259 29.5941 110.481 31.0715C109.634 32.6765 107.433 33.4587 106.108 33.6722C102.958 34.1799 99.5678 32.5997 94.3868 39.0859C94.3868 39.0859 92.0219 40.9417 90.4788 41.6888C90.0758 41.8843 89.7052 41.7758 89.5898 42.0463Z" fill="#FCFDFD"/>
<path d="M114.862 28.695C114.862 28.695 114.628 28.7871 114.801 28.9413C114.975 29.0949 115.056 29.1463 115.178 29.0232C115.178 29.0232 115.485 28.8176 115.241 28.725C114.998 28.6324 114.862 28.695 114.862 28.695Z" fill="#001F5C"/>
<path d="M99.2561 48.5692C99.2561 48.5692 98.3565 50.3154 99.3845 51.0061H100.684L100.555 50.7396C100.555 50.7396 99.7881 50.1641 99.4988 48.5692H99.2561Z" fill="#001F5C"/>
<path d="M101.583 48.1937C101.583 48.1937 100.798 50.0833 101.411 51.0185H102.868L102.958 50.5244C102.958 50.5244 102.067 50.6108 101.725 48.1942L101.583 48.1937Z" fill="#001F5C"/>
<path d="M79.7676 38.1874L84.0001 37.9536C84.0001 37.9536 81.6801 47.2421 73.715 46.9636C65.7498 46.6852 63.6646 40.9682 64.7991 36.9822C65.9337 32.9962 67.9583 30.7089 67.9583 30.7089C67.9583 30.7089 68.7862 27.125 67.6517 26.815C66.1797 26.4134 65.9342 25.3737 65.4432 24.9298C64.6562 24.2177 62.9281 22.8595 62.9281 22.8595C62.9281 22.8595 65.1366 23.3847 66.4555 22.7047C67.7744 22.0248 70.5351 21.3143 71.6393 23.5389C72.7581 25.7928 68.3266 35.7454 71.6701 35.9617C71.6701 35.9617 77.3136 34.9423 79.7676 38.1874Z" fill="#FCFDFD"/>
<path d="M68.3865 23.0351C68.3865 23.0351 68.1556 23.0984 68.1584 23.2305C68.1618 23.3632 68.1506 23.3694 68.2997 23.3677C68.4488 23.366 68.5951 23.3062 68.6494 23.1464C68.7038 22.9865 68.3865 23.0351 68.3865 23.0351Z" fill="#001F5C"/>
<path d="M74.1908 47.2494C74.1908 47.2494 76.7474 50.1381 73.3798 51.5037C73.3798 51.5037 71.9874 51.0039 72.6511 50.2906C73.3147 49.5773 73.8276 50.2177 74.2402 48.6359C74.4644 47.7757 74.1908 47.2494 74.1908 47.2494Z" fill="#001F5C"/>
<path d="M71.8815 46.9698C71.8815 46.9698 72.1169 46.9936 72.1427 47.0382C72.3601 47.4216 73.3209 49.3565 71.7576 51.2862C71.7576 51.2862 70.4947 50.4386 71.2318 49.8947C71.2318 49.8947 72.5003 48.9403 71.8815 46.9698Z" fill="#001F5C"/>
<path d="M38.698 41.3161C38.698 41.3161 40.4917 39.2452 41.9866 40.1866C41.9866 40.1866 43.93 40.8643 44.0791 43.5373C44.2287 46.2103 47.2181 49.1029 51.366 48.8239C55.5139 48.5449 61.9415 44.1771 62.6142 40.5255L57.3827 38.8312C57.3827 38.8312 51.1166 35.1637 45.3128 36.1955C40.8661 36.9862 37.4032 39.5462 37.4032 39.5462C37.4032 39.5462 31.5983 39.5462 33.6538 47.4527C33.6538 47.4527 34.1397 45.9092 35.3729 45.2315C36.6061 44.5538 39.5948 43.914 38.698 41.3161Z" fill="#FCFDFD"/>
<path d="M53.4164 48.6088C53.4164 48.6088 54.0504 50.9412 53.6827 51.441H52.3783C52.3783 51.441 52.213 51.1078 52.3783 50.9688C52.5437 50.8299 53.3335 50.0895 53.306 48.6731L53.4164 48.6088Z" fill="#001F5C"/>
<path d="M50.8626 49.0255H50.9546C50.9546 49.0255 51.3638 50.4657 51.2816 51.0511C51.2615 51.1942 51.212 51.2863 51.1199 51.2936C50.6513 51.3309 50.0084 51.2936 50.0084 51.2936C50.0084 51.2936 49.8049 51.202 49.7695 51.0696C49.7534 51.0092 49.7723 50.9403 49.8615 50.8678C50.1463 50.6362 50.7152 50.168 50.8626 49.0255Z" fill="#001F5C"/>
<path d="M35.193 41.9238C35.193 41.9238 35.0495 41.8074 34.971 41.9916C34.8925 42.1757 34.9054 42.3993 34.9469 42.4281C34.9878 42.4569 35.0422 42.4851 35.1481 42.3575C35.2546 42.2299 35.3213 42.2897 35.3068 42.1299C35.2916 41.9701 35.193 41.9238 35.193 41.9238Z" fill="#001F5C"/>
<path d="M106.684 50.3567L106.685 50.3719L73.4504 50.7791L101.476 32.0073L102.643 33.2927L105.335 28.3754L99.9058 29.6461L101.037 31.4877L72.2127 50.7943L51.2816 51.0511L49.7695 51.0696L38.2322 51.2111L38.0102 48.8245L32.0434 51.5042L38.0102 54.1834L38.2238 51.8894L71.1825 51.485L45.0421 68.994L43.5724 67.2371L40.1873 72.866L46.6054 71.6393L45.4339 69.5452L72.4196 51.4698L106.729 51.049L106.84 52.7772L111.671 50.0652L106.761 48.1954L106.684 50.3567Z" fill="#001F5C"/>
<path d="M30.2794 50.0607C30.3864 50.0912 30.4615 50.1189 30.5047 50.1432C30.5479 50.168 30.5815 50.2002 30.6061 50.2398C30.6308 50.2799 30.6476 50.3369 30.6566 50.412C30.6661 50.4871 30.6706 50.6057 30.6706 50.7672V51.5059C30.6706 51.8482 30.6751 52.2328 30.6846 52.658C30.6941 53.0833 30.7042 53.3685 30.716 53.5114H30.6706C30.6101 53.3798 30.5512 53.2617 30.494 53.1561C30.4369 53.0505 30.3662 52.9274 30.2827 52.7868L28.5574 49.8874H27.4644V50.0596C27.5714 50.0901 27.6471 50.1178 27.6914 50.1421C27.7357 50.1663 27.771 50.1997 27.7979 50.2403C27.8248 50.2816 27.8438 50.3386 27.8556 50.4126C27.8674 50.4866 27.873 50.6046 27.873 50.7661V53.8096C27.873 53.9829 27.8651 54.1123 27.85 54.1964C27.8349 54.2806 27.8029 54.3461 27.7542 54.3918C27.7054 54.4376 27.6084 54.4793 27.4644 54.5166V54.6889H28.739V54.5166C28.632 54.4884 28.5546 54.4601 28.507 54.4319C28.4593 54.4037 28.4234 54.3687 28.3988 54.3263C28.3741 54.2839 28.3567 54.2269 28.3466 54.1541C28.336 54.0812 28.3309 53.9666 28.3309 53.809V53.0912C28.3309 52.6219 28.3276 52.1509 28.3203 51.6782C28.3136 51.2055 28.3018 50.8791 28.2855 50.6983H28.345C28.3892 50.7898 28.4369 50.8824 28.4879 50.9762C28.5389 51.0699 28.6252 51.219 28.7463 51.4229L30.6913 54.7092H31.128V50.765C31.128 50.5939 31.1347 50.4707 31.1493 50.3956C31.1633 50.3205 31.1835 50.264 31.2104 50.2268C31.2373 50.1895 31.2721 50.159 31.3152 50.1353C31.3584 50.1116 31.4324 50.0861 31.5372 50.0579V49.8857H30.2799V50.0579L30.2794 50.0607Z" fill="#001F5C"/>
<path d="M114.636 51.2614C114.544 51.0959 114.416 50.9491 114.252 50.8198C114.088 50.691 113.857 50.5509 113.559 50.4013C113.312 50.2793 113.125 50.1692 113 50.0703C112.874 49.9721 112.782 49.8653 112.722 49.7501C112.663 49.6349 112.633 49.4943 112.633 49.3277C112.633 49.1707 112.668 49.0351 112.738 48.9211C112.808 48.8075 112.903 48.7223 113.023 48.6658C113.143 48.6093 113.278 48.5811 113.43 48.5811C113.605 48.5811 113.746 48.6037 113.856 48.6494C113.965 48.6952 114.06 48.7754 114.142 48.8906C114.223 49.0058 114.291 49.1662 114.345 49.3729H114.69V48.423C114.436 48.3574 114.225 48.3151 114.056 48.2964C113.888 48.2778 113.714 48.2682 113.538 48.2682C113.233 48.2682 112.962 48.3207 112.726 48.4263C112.489 48.5319 112.31 48.6816 112.188 48.8748C112.066 49.0685 112.005 49.2966 112.005 49.5592C112.005 49.74 112.044 49.9066 112.122 50.059C112.2 50.2115 112.318 50.3527 112.476 50.4832C112.634 50.6136 112.85 50.7463 113.123 50.8824C113.405 51.0231 113.614 51.1462 113.751 51.2518C113.888 51.3574 113.987 51.4698 114.048 51.5895C114.109 51.7092 114.139 51.8566 114.139 52.0328C114.139 52.3073 114.066 52.5163 113.921 52.6592C113.775 52.802 113.566 52.8738 113.294 52.8738C113.096 52.8738 112.934 52.845 112.809 52.7874C112.683 52.7297 112.581 52.6411 112.502 52.5219C112.422 52.4028 112.36 52.2395 112.313 52.0328H111.964V52.9969C112.441 53.1211 112.862 53.1832 113.228 53.1832C113.454 53.1832 113.662 53.159 113.851 53.111C114.041 53.063 114.204 52.9856 114.34 52.8788C114.476 52.7721 114.583 52.6337 114.66 52.4637C114.736 52.2938 114.775 52.0854 114.775 51.8391C114.775 51.6189 114.729 51.4257 114.637 51.2603L114.636 51.2614Z" fill="#001F5C"/>
<path d="M109.109 28.3918H108.763C108.716 28.551 108.679 28.6724 108.653 28.756C108.626 28.8396 108.593 28.9198 108.553 28.9972C108.513 29.0746 108.468 29.1372 108.417 29.1852C108.366 29.2332 108.305 29.2671 108.234 29.2875C108.162 29.3072 108.07 29.3174 107.956 29.3174H106.87V27.2871H107.617C107.726 27.2871 107.809 27.3024 107.863 27.3329C107.918 27.3634 107.965 27.4142 108.004 27.4859C108.044 27.5576 108.08 27.6638 108.113 27.8044H108.441V26.4535H108.113C108.078 26.6038 108.041 26.7139 108.003 26.7845C107.964 26.8551 107.916 26.9048 107.857 26.9341C107.799 26.9635 107.719 26.9782 107.616 26.9782H106.869V25.1343H107.973C108.064 25.1343 108.142 25.1405 108.207 25.1535C108.272 25.1665 108.328 25.1902 108.376 25.2258C108.424 25.2613 108.467 25.3077 108.507 25.3664C108.547 25.4251 108.585 25.498 108.623 25.5844C108.66 25.6714 108.696 25.7719 108.731 25.8871H109.073V24.8242H105.808V24.9965C105.915 25.027 105.991 25.0546 106.035 25.0789C106.079 25.1038 106.115 25.1365 106.142 25.1772C106.169 25.2184 106.188 25.2755 106.199 25.3494C106.211 25.4234 106.217 25.5415 106.217 25.703V28.7464C106.217 28.9198 106.21 29.0491 106.194 29.1333C106.179 29.218 106.147 29.2829 106.099 29.3287C106.05 29.3744 105.953 29.4162 105.809 29.4535V29.6258H109.042L109.109 28.3906V28.3918Z" fill="#001F5C"/>
<path d="M39.1027 71.9099C38.8196 71.7257 38.471 71.6337 38.0567 71.6337C37.6677 71.6337 37.3264 71.7314 37.0315 71.9274C36.7372 72.1233 36.5108 72.4091 36.3522 72.7841C36.1941 73.1596 36.1145 73.6086 36.1145 74.1316C36.1145 74.5563 36.1593 74.9211 36.249 75.2261C36.3387 75.531 36.4654 75.7812 36.6296 75.9772C36.7939 76.1732 36.9906 76.3172 37.2199 76.4098C37.4491 76.5024 37.7036 76.5487 37.9827 76.5487C38.3785 76.5487 38.7249 76.455 39.022 76.2675C39.3185 76.08 39.5489 75.797 39.7114 75.4192C39.8745 75.0414 39.9558 74.5783 39.9558 74.0294C39.9558 73.5154 39.8841 73.08 39.7411 72.7225C39.5982 72.365 39.3852 72.094 39.1027 71.9099ZM39.1044 75.2786C39.0158 75.5932 38.883 75.8315 38.7064 75.9947C38.5293 76.1579 38.314 76.2392 38.0601 76.2392C37.6599 76.2392 37.3549 76.0517 37.147 75.6762C36.9385 75.3006 36.8342 74.7534 36.8342 74.0327C36.8342 73.7159 36.8572 73.429 36.902 73.1709C36.9474 72.9128 37.0198 72.6932 37.1184 72.5113C37.2171 72.3295 37.3421 72.1894 37.4923 72.0906C37.6425 71.9923 37.8224 71.9426 38.0321 71.9426C38.2697 71.9426 38.4777 72.0188 38.6571 72.1713C38.8364 72.3238 38.9777 72.5684 39.0814 72.9049C39.1851 73.2415 39.2367 73.6657 39.2367 74.1768C39.2367 74.5969 39.1929 74.9646 39.1044 75.2786Z" fill="#001F5C"/>
<path d="M35.9979 100.127L33.0209 99.2839L32.9385 99.5804C33.1078 99.6849 33.225 99.7691 33.2889 99.8329C33.3528 99.8967 33.3982 99.9707 33.4245 100.054C33.4508 100.138 33.4565 100.246 33.4408 100.378C33.4251 100.511 33.3785 100.717 33.3012 100.995L31.8416 106.225C31.7586 106.523 31.6835 106.741 31.6168 106.879C31.5501 107.017 31.4638 107.113 31.3578 107.168C31.2519 107.223 31.0658 107.247 30.7995 107.241L30.7166 107.538L33.3516 108.284L33.4346 107.988C33.2507 107.888 33.1196 107.802 33.0405 107.729C32.9615 107.657 32.9066 107.572 32.8757 107.473C32.8449 107.376 32.8359 107.252 32.8494 107.104C32.8628 106.956 32.9026 106.762 32.9688 106.525L33.5293 104.517C33.7687 104.602 34.1106 104.708 34.5551 104.834C34.9514 104.946 35.3421 105.007 35.7283 105.016C36.1145 105.026 36.4693 104.961 36.7927 104.822C37.1167 104.683 37.397 104.467 37.6347 104.173C37.8723 103.879 38.0494 103.523 38.1666 103.103C38.3723 102.366 38.2966 101.751 37.9396 101.261C37.582 100.77 36.9351 100.393 35.999 100.127H35.9979ZM36.9155 102.919C36.7883 103.374 36.6083 103.718 36.3751 103.95C36.142 104.182 35.8617 104.316 35.5343 104.351C35.207 104.386 34.8174 104.34 34.3651 104.212L33.6689 104.015L34.6902 100.356C34.8948 100.397 35.1952 100.473 35.591 100.586C35.855 100.66 36.091 100.759 36.2989 100.881C36.5069 101.003 36.6717 101.158 36.7944 101.345C36.9172 101.532 36.9923 101.754 37.0192 102.012C37.0467 102.27 37.0125 102.572 36.9155 102.919Z" fill="#001F5C"/>
<path d="M46.6738 102.771L44.2489 102.212L44.1805 102.511C44.4126 102.634 44.5606 102.739 44.6239 102.827C44.6873 102.914 44.7209 103.027 44.7259 103.166C44.7304 103.305 44.6929 103.552 44.6122 103.906L43.7416 107.733C43.6273 108.235 43.5101 108.629 43.3896 108.915C43.2691 109.201 43.1139 109.429 42.9238 109.6C42.7332 109.771 42.5197 109.882 42.282 109.932C42.0444 109.983 41.7837 109.975 41.5001 109.91C41.1923 109.839 40.9429 109.745 40.7512 109.631C40.5601 109.516 40.4059 109.366 40.2905 109.183C40.1744 108.999 40.1055 108.763 40.0836 108.475C40.0618 108.186 40.0959 107.844 40.1862 107.448L41.1722 103.113C41.2484 102.778 41.3185 102.543 41.3835 102.408C41.4485 102.272 41.5337 102.179 41.6391 102.128C41.7445 102.077 41.9171 102.05 42.157 102.044L42.2254 101.745L39.6727 101.155L39.6044 101.455C39.7905 101.554 39.9149 101.635 39.9771 101.699C40.0393 101.763 40.0825 101.832 40.106 101.906C40.1296 101.981 40.1385 102.076 40.1335 102.193C40.1285 102.31 40.0892 102.527 40.0169 102.846L39.1004 106.875C38.9805 107.402 38.9328 107.847 38.9564 108.211C38.9799 108.575 39.078 108.909 39.2501 109.213C39.4216 109.517 39.6705 109.765 39.9956 109.956C40.3207 110.147 40.7288 110.299 41.2193 110.412C41.6245 110.506 41.9866 110.545 42.3061 110.528C42.6256 110.512 42.907 110.453 43.152 110.353C43.3964 110.253 43.6138 110.112 43.8039 109.933C44.0118 109.732 44.1889 109.487 44.3352 109.199C44.4894 108.895 44.6172 108.52 44.7187 108.075L45.6144 104.139C45.6906 103.804 45.7607 103.571 45.8246 103.439C45.8885 103.308 45.9726 103.216 46.0763 103.162C46.18 103.109 46.3565 103.078 46.6054 103.072L46.6738 102.771Z" fill="#001F5C"/>
<path d="M47.727 103.285C47.9058 103.373 48.0297 103.446 48.0998 103.503C48.1698 103.561 48.222 103.63 48.2562 103.71C48.2904 103.791 48.3061 103.899 48.3032 104.032C48.3004 104.165 48.2735 104.374 48.2225 104.659L47.2646 110.006C47.2102 110.311 47.1558 110.535 47.1032 110.678C47.0499 110.822 46.9731 110.926 46.8728 110.991C46.7724 111.056 46.5897 111.098 46.324 111.118L46.2696 111.42L51.9512 112.454L52.4562 110.306L51.8486 110.195C51.7163 110.46 51.6138 110.662 51.5409 110.8C51.4675 110.938 51.3839 111.068 51.2903 111.192C51.1962 111.315 51.0969 111.411 50.9916 111.479C50.8862 111.547 50.7685 111.587 50.6373 111.599C50.5061 111.612 50.3402 111.599 50.1401 111.563L48.2321 111.216L48.8711 107.649L50.1838 107.888C50.3761 107.923 50.5157 107.976 50.602 108.047C50.6883 108.118 50.7556 108.223 50.8027 108.361C50.8497 108.5 50.8795 108.697 50.8929 108.955L51.4697 109.06L51.8951 106.687L51.3184 106.582C51.2096 106.834 51.1104 107.017 51.0207 107.128C50.931 107.239 50.8307 107.311 50.7191 107.344C50.6076 107.377 50.4619 107.377 50.2819 107.344L48.9692 107.105L49.5493 103.866L51.4882 104.218C51.6479 104.248 51.7825 104.284 51.8935 104.327C52.0039 104.371 52.0952 104.431 52.1681 104.508C52.241 104.585 52.3026 104.681 52.3542 104.797C52.4052 104.913 52.4501 105.053 52.4882 105.217C52.5263 105.382 52.5583 105.571 52.5829 105.784L53.1844 105.893L53.519 104.026L47.7825 102.983L47.7281 103.286L47.727 103.285Z" fill="#001F5C"/>
<path d="M60.1557 112.737C60.061 112.565 59.9528 112.318 59.8306 111.998L59.4068 110.903C59.2409 110.467 59.0812 110.141 58.927 109.924C58.7729 109.707 58.5767 109.53 58.339 109.394L58.3457 109.344C58.9971 109.202 59.5044 108.952 59.867 108.594C60.2297 108.237 60.4483 107.774 60.5223 107.205C60.6187 106.461 60.4511 105.882 60.0189 105.466C59.5868 105.05 58.8883 104.778 57.9242 104.651L54.8643 104.248L54.8245 104.553C55.0072 104.632 55.1344 104.698 55.2073 104.752C55.2796 104.806 55.3351 104.872 55.3732 104.951C55.4108 105.03 55.4315 105.136 55.4355 105.27C55.4394 105.403 55.4226 105.613 55.385 105.9L54.6855 111.288C54.6457 111.595 54.6025 111.822 54.556 111.968C54.51 112.113 54.4383 112.221 54.3413 112.291C54.2443 112.36 54.0633 112.412 53.7993 112.444L53.7595 112.749L56.3682 113.093L56.408 112.788C56.2252 112.709 56.0974 112.643 56.0251 112.589C55.9528 112.535 55.8979 112.471 55.8615 112.396C55.825 112.322 55.8043 112.216 55.7992 112.078C55.7942 111.94 55.811 111.721 55.8497 111.423L56.1249 109.305L56.8048 109.395C57.0066 109.421 57.1568 109.453 57.2549 109.489C57.353 109.525 57.4422 109.579 57.5234 109.651C57.6041 109.723 57.6877 109.84 57.7729 110.004C57.8586 110.167 57.9635 110.418 58.0873 110.755L58.4965 111.867C58.5985 112.147 58.7034 112.422 58.8104 112.694C58.9175 112.966 59.0352 113.222 59.163 113.463L60.8754 113.688L60.9152 113.383C60.7218 113.324 60.5705 113.245 60.4617 113.146C60.353 113.047 60.2504 112.911 60.1557 112.737ZM57.7746 108.898C57.5453 108.92 57.2516 108.908 56.8928 108.86L56.1944 108.768L56.6748 105.069C56.908 105.083 57.2095 105.114 57.5806 105.163C58.0419 105.224 58.4001 105.341 58.654 105.514C58.9085 105.687 59.0851 105.912 59.1854 106.192C59.2852 106.471 59.3099 106.808 59.2583 107.202C59.209 107.58 59.1114 107.891 58.964 108.136C58.8171 108.38 58.6395 108.563 58.4309 108.683C58.2224 108.803 58.0038 108.876 57.7746 108.898Z" fill="#001F5C"/>
<path d="M61.6624 107.337L62.2779 107.386C62.3827 107.058 62.4881 106.788 62.5946 106.576C62.7005 106.364 62.8126 106.203 62.9292 106.092C63.0464 105.981 63.1691 105.912 63.2986 105.885C63.4281 105.858 63.5901 105.852 63.7846 105.867L64.5676 105.929L64.0654 112.342C64.0458 112.592 64.0194 112.781 63.9864 112.909C63.9533 113.036 63.9141 113.136 63.8692 113.208C63.8238 113.28 63.7694 113.338 63.7055 113.381C63.6416 113.424 63.5609 113.459 63.4628 113.484C63.3647 113.51 63.2526 113.533 63.126 113.552L63.1018 113.858L65.9421 114.084L65.9662 113.778C65.7666 113.716 65.6214 113.657 65.5295 113.602C65.4376 113.546 65.3675 113.473 65.3182 113.383C65.2689 113.293 65.2364 113.174 65.2212 113.025C65.2055 112.878 65.2078 112.68 65.2268 112.434L65.7291 106.021L66.5183 106.084C66.7459 106.102 66.9151 106.139 67.0256 106.194C67.136 106.248 67.2363 106.334 67.3277 106.451C67.4185 106.567 67.5003 106.733 67.5732 106.949C67.6461 107.164 67.7139 107.456 67.7767 107.822L68.386 107.87L68.5569 105.691L61.8317 105.156L61.6607 107.336L61.6624 107.337Z" fill="#001F5C"/>
<path d="M74.6729 106.229C74.174 105.891 73.5546 105.715 72.8153 105.701C72.1214 105.688 71.5081 105.851 70.9762 106.191C70.4443 106.531 70.0306 107.033 69.7357 107.698C69.4409 108.363 69.2845 109.162 69.2671 110.096C69.2531 110.853 69.3209 111.506 69.4712 112.054C69.6208 112.601 69.8394 113.052 70.1259 113.407C70.4123 113.762 70.7587 114.026 71.1651 114.2C71.5715 114.372 72.0238 114.464 72.5227 114.473C73.229 114.486 73.8506 114.331 74.3865 114.005C74.9223 113.681 75.3422 113.184 75.6454 112.515C75.9487 111.846 76.1095 111.022 76.1275 110.042C76.1443 109.125 76.0311 108.345 75.7872 107.702C75.5434 107.059 75.1718 106.568 74.6729 106.229ZM74.8383 110.281C74.8242 111.031 74.7334 111.685 74.5653 112.243C74.3971 112.801 74.1522 113.223 73.831 113.507C73.5098 113.792 73.1225 113.931 72.6696 113.922C71.9549 113.909 71.4179 113.564 71.058 112.887C70.6982 112.21 70.5306 111.229 70.5541 109.944C70.5648 109.378 70.6146 108.866 70.7038 108.407C70.7935 107.948 70.9291 107.558 71.1118 107.237C71.2946 106.915 71.5216 106.67 71.7929 106.499C72.0642 106.328 72.3871 106.246 72.7609 106.253C73.1847 106.261 73.5541 106.404 73.8691 106.682C74.1841 106.961 74.4285 107.402 74.6023 108.006C74.776 108.61 74.8551 109.369 74.8383 110.281Z" fill="#001F5C"/>
<path d="M87.1509 105.205L84.5399 105.409L84.5635 105.715C84.8404 105.736 85.0399 105.799 85.1627 105.905C85.2854 106.011 85.3566 106.189 85.3757 106.44C85.3796 106.494 85.3813 106.553 85.3796 106.616C85.3779 106.679 85.3712 106.753 85.3589 106.838C85.3465 106.923 85.3314 107.01 85.3135 107.1C85.295 107.189 85.277 107.275 85.258 107.356L83.869 112.644L82.0226 107.646C81.9447 107.446 81.883 107.266 81.8371 107.103C81.7911 106.94 81.7631 106.788 81.7519 106.647C81.7401 106.492 81.7552 106.367 81.7984 106.271C81.841 106.176 81.9105 106.099 82.0058 106.041C82.1016 105.983 82.2434 105.93 82.4312 105.881L82.4077 105.575L79.5977 105.793L79.6213 106.1C79.7984 106.128 79.9397 106.179 80.0456 106.253C80.1515 106.327 80.2519 106.441 80.3472 106.595C80.4425 106.749 80.5602 107.013 80.7014 107.384L83.332 114.204L84.1464 114.14L86.1941 107C86.3095 106.605 86.4116 106.315 86.4996 106.132C86.5876 105.949 86.6806 105.814 86.7781 105.726C86.8757 105.639 87.008 105.567 87.1744 105.513L87.1509 105.205Z" fill="#001F5C"/>
<path d="M94.3453 112.246C94.2242 112.166 94.1138 112.047 94.0129 111.889C93.912 111.73 93.7887 111.496 93.6435 111.188L90.5382 104.567L89.5634 104.711L87.9917 111.971C87.8942 112.426 87.7765 112.782 87.6397 113.039C87.5029 113.297 87.3219 113.46 87.0971 113.532L87.1414 113.836L89.7753 113.448L89.731 113.144C89.4664 113.145 89.263 113.096 89.1206 112.999C88.9782 112.901 88.8891 112.728 88.8527 112.48C88.8342 112.352 88.8297 112.206 88.8398 112.044C88.8499 111.882 88.8857 111.639 88.9485 111.317L89.0696 110.677L91.944 110.253L92.2887 111.021C92.3801 111.214 92.4541 111.391 92.5107 111.55C92.5673 111.708 92.606 111.859 92.6262 111.999C92.648 112.148 92.6402 112.272 92.6043 112.368C92.5679 112.464 92.5028 112.544 92.4092 112.609C92.3156 112.674 92.1693 112.741 91.9698 112.813L92.0141 113.118L94.8582 112.698L94.8139 112.394C94.6222 112.375 94.4658 112.326 94.3453 112.246ZM89.1576 110.111L89.981 105.894L91.736 109.73L89.1576 110.111Z" fill="#001F5C"/>
<path d="M102.595 110.36C102.458 110.307 102.315 110.218 102.165 110.09C102.015 109.963 101.826 109.773 101.597 109.518L100.812 108.649C100.502 108.302 100.237 108.056 100.016 107.909C99.7942 107.763 99.5482 107.669 99.2774 107.627L99.2657 107.578C99.8228 107.21 100.207 106.793 100.419 106.328C100.63 105.863 100.669 105.352 100.535 104.794C100.36 104.066 99.9972 103.585 99.4456 103.354C98.894 103.122 98.1457 103.121 97.2001 103.351L94.2001 104.081L94.2719 104.38C94.4703 104.388 94.6133 104.404 94.7001 104.428C94.787 104.452 94.8627 104.494 94.926 104.554C94.9894 104.614 95.0465 104.705 95.0976 104.829C95.1486 104.952 95.2074 105.154 95.2752 105.435L96.5415 110.717C96.6138 111.018 96.6541 111.245 96.6631 111.398C96.6721 111.551 96.6435 111.677 96.5779 111.777C96.5123 111.877 96.3616 111.99 96.1267 112.117L96.1984 112.416L98.7556 111.794L98.6838 111.494C98.4854 111.487 98.3425 111.471 98.2556 111.447C98.1687 111.423 98.0947 111.383 98.0342 111.326C97.9736 111.27 97.9165 111.178 97.8627 111.051C97.8088 110.925 97.7466 110.715 97.6766 110.421L97.1788 108.345L97.8453 108.183C98.0431 108.135 98.1945 108.11 98.2988 108.109C98.403 108.107 98.5056 108.125 98.607 108.163C98.7079 108.201 98.8279 108.28 98.9658 108.402C99.1037 108.523 99.2909 108.719 99.5269 108.989L100.305 109.879C100.5 110.103 100.696 110.323 100.892 110.538C101.089 110.752 101.29 110.949 101.495 111.127L103.174 110.718L103.103 110.419C102.901 110.434 102.731 110.415 102.595 110.362L102.595 110.36ZM99.111 106.93C98.9591 107.118 98.7808 107.264 98.5745 107.368C98.3688 107.472 98.0897 107.567 97.7382 107.652L97.0532 107.818L96.1839 104.192C96.4064 104.12 96.699 104.04 97.0628 103.952C97.5151 103.841 97.8912 103.821 98.19 103.891C98.4888 103.96 98.7348 104.107 98.9277 104.332C99.1205 104.556 99.2634 104.862 99.3559 105.248C99.4445 105.619 99.4641 105.945 99.4142 106.226C99.3638 106.507 99.2623 106.743 99.111 106.93Z" fill="#001F5C"/>
<path d="M110.53 107.539C110.396 107.486 110.264 107.392 110.134 107.257C110.004 107.122 109.837 106.917 109.633 106.644L105.278 100.782L104.352 101.119L104.25 108.549C104.244 109.014 104.199 109.386 104.117 109.666C104.034 109.945 103.888 110.143 103.683 110.258L103.786 110.547L106.29 109.636L106.187 109.347C105.928 109.401 105.719 109.395 105.56 109.327C105.401 109.261 105.28 109.109 105.195 108.872C105.151 108.75 105.118 108.609 105.096 108.448C105.073 108.287 105.061 108.042 105.058 107.713L105.05 107.062L107.783 106.068L108.273 106.751C108.401 106.923 108.508 107.081 108.595 107.225C108.682 107.369 108.75 107.508 108.798 107.642C108.849 107.784 108.866 107.906 108.85 108.008C108.833 108.109 108.785 108.201 108.707 108.283C108.628 108.365 108.498 108.462 108.317 108.572L108.42 108.862L111.124 107.879L111.02 107.589C110.828 107.61 110.666 107.594 110.532 107.539H110.53ZM105.024 106.49L104.995 102.193L107.475 105.598L105.024 106.49Z" fill="#001F5C"/>
<path d="M116.061 104.027C116.046 103.694 115.939 103.332 115.74 102.94C115.563 102.59 115.333 102.321 115.054 102.133C114.774 101.946 114.452 101.817 114.087 101.746C113.722 101.676 113.241 101.643 112.647 101.649C112.156 101.658 111.771 101.635 111.491 101.581C111.212 101.528 110.979 101.434 110.792 101.3C110.605 101.166 110.444 100.967 110.309 100.702C110.183 100.452 110.129 100.208 110.148 99.9701C110.167 99.7323 110.249 99.5194 110.394 99.3314C110.539 99.1439 110.732 98.988 110.972 98.8638C111.25 98.7203 111.494 98.6407 111.705 98.6237C111.916 98.6068 112.132 98.6565 112.355 98.7723C112.577 98.888 112.814 99.0885 113.066 99.372L113.615 99.0885L112.848 97.5789C112.392 97.6823 112.022 97.7885 111.739 97.8969C111.455 98.0053 111.173 98.1324 110.892 98.277C110.407 98.5272 110.019 98.8327 109.729 99.1941C109.439 99.5556 109.275 99.9402 109.237 100.348C109.199 100.756 109.286 101.169 109.498 101.586C109.644 101.873 109.841 102.105 110.088 102.284C110.335 102.462 110.637 102.59 110.994 102.667C111.351 102.745 111.8 102.78 112.343 102.772C112.904 102.765 113.337 102.789 113.64 102.844C113.943 102.899 114.191 102.997 114.384 103.138C114.577 103.278 114.745 103.489 114.887 103.768C115.108 104.204 115.161 104.595 115.045 104.942C114.93 105.289 114.655 105.574 114.222 105.797C113.908 105.959 113.628 106.046 113.382 106.058C113.135 106.07 112.901 106.013 112.679 105.888C112.456 105.763 112.225 105.556 111.984 105.265L111.429 105.552L112.207 107.084C113.066 106.89 113.786 106.644 114.367 106.344C114.726 106.159 115.037 105.95 115.3 105.718C115.563 105.487 115.759 105.23 115.889 104.948C116.019 104.667 116.077 104.36 116.061 104.027Z" fill="#001F5C"/>
<path d="M119.296 30.0064C118.859 29.7737 117.658 29.0356 117.354 28.4217C117.342 28.3974 117.326 28.3748 117.307 28.3545C117.258 28.3014 116.08 27.0556 114.6 27.0556C113.967 27.0556 113.377 27.2826 112.846 27.731C112.025 28.4234 111.073 29.3456 110.233 30.9382C109.422 32.4761 107.23 33.2046 106.063 33.3926C105.43 33.4949 104.785 33.5101 104.101 33.5259C101.414 33.5892 98.3683 33.6615 94.1884 38.882C93.93 39.0831 91.7708 40.7485 90.3566 41.4336C90.2249 41.4974 90.0914 41.5211 89.9625 41.5448C89.7383 41.5855 89.4586 41.6358 89.3314 41.9345C89.3022 42.0034 89.3011 42.0808 89.3286 42.1503C89.3515 42.209 89.9154 43.6084 91.4591 45.1367C92.8767 46.5395 95.426 48.3162 99.5224 48.8149C99.5246 48.8149 99.5269 48.8149 99.5291 48.8155C99.7735 48.8392 100.018 48.851 100.254 48.851H100.256C103.062 48.851 105.275 47.1664 106.657 43.98C107.577 41.8611 107.838 39.7743 107.888 39.2898L114.499 32.4043C114.687 32.4314 115.032 32.4704 115.462 32.4704C116.559 32.4704 118.529 32.1988 119.416 30.3797C119.482 30.2425 119.43 30.0776 119.296 30.0064ZM114.454 31.8255C114.361 31.8074 114.265 31.8379 114.199 31.9062L107.419 38.9684C107.374 39.0153 107.346 39.0763 107.341 39.1407C107.339 39.1638 107.135 41.472 106.145 43.7541C104.841 46.762 102.86 48.2868 100.257 48.2868C100.039 48.2868 99.8133 48.2761 99.5874 48.2541C95.6642 47.7757 93.2276 46.0871 91.8739 44.7549C90.7226 43.6214 90.1368 42.5456 89.9345 42.1265C89.976 42.1169 90.0242 42.1085 90.0629 42.1011C90.2131 42.074 90.4003 42.0401 90.601 41.943C92.1536 41.1913 94.4625 39.3847 94.56 39.3079C94.5768 39.2943 94.5925 39.2791 94.606 39.2621C98.6334 34.22 101.546 34.1511 104.115 34.0907C104.818 34.0743 105.483 34.0585 106.153 33.9501C107.73 33.6959 109.874 32.8239 110.729 31.2031C111.521 29.7003 112.388 28.8543 113.207 28.1642C113.634 27.8033 114.104 27.6203 114.601 27.6203C115.73 27.6203 116.708 28.5488 116.875 28.7154C117.055 29.0508 117.398 29.3829 117.758 29.6687C117.922 30.0465 118.158 30.8038 117.744 31.3804C117.026 31.7927 116.176 31.9051 115.463 31.9051C114.878 31.9051 114.458 31.8249 114.454 31.8238L114.454 31.8255Z" fill="#001F5C"/>
<path d="M84.2165 37.774C84.1599 37.7045 84.0736 37.6673 83.985 37.6718L79.8976 37.8977C78.3281 35.9436 75.6628 35.5285 73.6841 35.5285C72.6219 35.5285 71.8338 35.6494 71.6567 35.6788C71.3775 35.6539 71.1673 35.5438 71.0154 35.3416C70.2839 34.3685 70.8871 31.5165 71.4196 29C71.9398 26.5422 72.3887 24.4193 71.8899 23.4135C71.3501 22.3252 70.3725 21.7503 69.0637 21.7503C67.7548 21.7503 66.6478 22.2891 66.3277 22.454C65.9196 22.6646 65.3642 22.7714 64.6769 22.7714C63.7885 22.7714 63.0004 22.5872 62.9925 22.585C62.8642 22.5545 62.7325 22.6183 62.6753 22.7375C62.6181 22.8572 62.6517 23.0006 62.7554 23.082C62.7728 23.0955 64.4852 24.443 65.256 25.1399C65.3703 25.2433 65.4779 25.3997 65.6029 25.5816C65.9488 26.0842 66.423 26.7721 67.5783 27.0878C67.8826 27.1708 68.0216 27.8304 67.951 28.8526C67.8989 29.6111 67.7475 30.3554 67.6999 30.5779C67.3737 30.9642 65.5844 33.1984 64.5295 36.9043C63.8754 39.2022 64.3031 41.7086 65.6741 43.6096C66.807 45.1801 69.1197 47.0862 73.7049 47.246C73.8248 47.25 73.9453 47.2522 74.0636 47.2522C75.8713 47.2522 77.5355 46.7626 79.0103 45.798C80.1846 45.0294 81.239 43.9608 82.1448 42.6207C83.679 40.3515 84.2485 38.1168 84.2714 38.0225C84.2933 37.9355 84.2731 37.8429 84.2165 37.774ZM81.6818 42.3027C79.7154 45.2123 77.1521 46.6875 74.0642 46.6875C73.9526 46.6875 73.8383 46.6852 73.725 46.6813C69.3658 46.5288 67.1881 44.7459 66.1287 43.2769C64.8586 41.5155 64.4623 39.1915 65.0693 37.0596C66.1713 33.1888 68.1489 30.9185 68.1685 30.8964C68.1999 30.8614 68.2217 30.8185 68.2324 30.7728C68.2408 30.7355 68.4454 29.8437 68.511 28.8978C68.6096 27.4842 68.3529 26.7133 67.7257 26.5422C66.7677 26.2807 66.3938 25.738 66.0643 25.2591C66.0166 25.1902 65.9701 25.1224 65.9224 25.0575C65.9684 24.8208 66.0603 24.5176 66.2268 24.1279C66.5228 23.4349 66.7924 23.0159 66.9942 22.7663C67.4706 22.5675 68.2402 22.3145 69.0642 22.3145C70.1617 22.3145 70.9442 22.7691 71.3887 23.6654C71.8002 24.4938 71.3282 26.7246 70.8719 28.8814C70.2873 31.6453 69.6825 34.5029 70.5692 35.6821C70.8271 36.0255 71.1914 36.2141 71.6522 36.2441C71.6746 36.2458 71.6976 36.2441 71.7195 36.2401C71.7279 36.2384 72.553 36.0927 73.6841 36.0927C75.5759 36.0927 78.1286 36.4858 79.5445 38.3585C79.6011 38.4331 79.6908 38.4743 79.7827 38.4692L83.6201 38.2574C83.3948 38.9803 82.8006 40.6474 81.6818 42.3027Z" fill="#001F5C"/>
<path d="M62.6994 40.2566L57.496 38.5714C57.0621 38.3212 52.4417 35.7302 47.4675 35.7302C46.7041 35.7302 45.9619 35.7934 45.2629 35.9176C41.1004 36.658 37.8409 38.8871 37.3079 39.2672C36.8757 39.2881 35.0971 39.4677 33.9329 40.9874C32.8174 42.4434 32.6319 44.6431 33.3813 47.525C33.4127 47.6464 33.5203 47.7328 33.6453 47.7356C33.7703 47.739 33.8819 47.6588 33.9194 47.5385C33.9239 47.5244 34.3841 46.0962 35.5052 45.4795C35.7154 45.3637 35.9917 45.244 36.2843 45.1175C36.976 44.8176 37.837 44.4448 38.425 43.8631C39.1032 43.1922 39.3011 42.3598 39.0141 41.3878C39.319 41.0744 40.2305 40.2233 41.1374 40.2233C41.3919 40.2233 41.6206 40.2894 41.837 40.4255C41.8543 40.4362 41.8734 40.4458 41.893 40.4526C41.9653 40.4786 43.6621 41.1139 43.7988 43.5531C43.949 46.2441 46.8033 49.1249 50.8116 49.1249C51.0011 49.1249 51.1934 49.1182 51.3845 49.1057C53.4394 48.9674 56.0829 47.8701 58.4556 46.1696C60.9477 44.3838 62.5637 42.3451 62.8894 40.5769C62.9152 40.4374 62.8334 40.3001 62.6994 40.2566ZM58.1305 45.7093C55.8732 47.3268 53.2735 48.4122 51.3469 48.5421C51.1687 48.554 50.9882 48.5602 50.8116 48.5602C47.12 48.5602 44.4944 45.955 44.3588 43.5215C44.2091 40.8491 42.3846 40.0386 42.1099 39.9313C41.8129 39.7506 41.4861 39.6586 41.1385 39.6586C39.777 39.6586 38.5388 41.0699 38.4867 41.1303C38.4205 41.2066 38.4003 41.3127 38.4328 41.4087C39.0349 43.1527 37.7742 43.8575 36.064 44.5984C35.7591 44.7306 35.471 44.8554 35.2378 44.9836C34.9805 45.1248 34.7546 45.2999 34.5562 45.4896C34.0282 45.484 33.6762 44.2314 33.5327 43.6011C33.633 42.6969 33.9127 41.9402 34.3729 41.3364C35.5052 39.8523 37.3841 39.828 37.402 39.828C37.4615 39.828 37.5197 39.8088 37.5679 39.7732C37.6021 39.7478 41.0337 37.242 45.3605 36.4728C46.0275 36.3542 46.7366 36.2938 47.4675 36.2938C52.4276 36.2938 57.1933 39.0464 57.2409 39.074C57.2583 39.0842 57.2768 39.0927 57.2959 39.0989L62.284 40.7141C61.8844 42.2683 60.353 44.115 58.1299 45.7082L58.1305 45.7093Z" fill="#001F5C"/>
</svg>
